<svg xmlns="http://www.w3.org/2000/svg" xmlns:xlink="http://www.w3.org/1999/xlink" version="1.1" x="0px" y="0px" viewBox="-17.5 -17.5 100 125" enable-background="new -17.5 -17.5 100 100" xml:space="preserve"><path d="M60.153-7.823c0-2.211-1.8-4.011-4.012-4.011s-4.012,1.799-4.012,4.011c0,2.212,1.8,4.012,4.012,4.012  S60.153-5.611,60.153-7.823z M53.63-7.823c0-1.384,1.127-2.511,2.512-2.511s2.512,1.126,2.512,2.511  c0,1.385-1.127,2.512-2.512,2.512S53.63-6.438,53.63-7.823z"/><path d="M72.712,44.082c0-13.534-7.372-25.372-18.306-31.731c-0.056-0.042-0.111-0.076-0.176-0.101  c-5.37-3.084-11.584-4.857-18.208-4.857c-3.695,0-7.263,0.555-10.629,1.576c-0.017,0.003-0.034-0.001-0.051,0.003  c-0.019,0.005-0.033,0.019-0.051,0.026C10.28,13.598-0.667,27.584-0.667,44.082c0,10.268,4.245,19.558,11.065,26.224  c0.041,0.055,0.092,0.099,0.148,0.142c6.605,6.384,15.586,10.324,25.476,10.324c7.944,0,15.302-2.547,21.314-6.854  c0.011-0.006,0.022-0.003,0.033-0.009c0.047-0.025,0.079-0.065,0.118-0.099C66.701,67.138,72.712,56.302,72.712,44.082z   M71.212,44.082c0,1.971-0.171,3.9-0.483,5.783c-2.301-2.01-7.34-3.677-13.008-5.552c-3.511-1.161-7.141-2.362-9.729-3.586  c-6.676-3.156-6.818-9.14-6.999-16.715l-0.014-0.595c-0.081-3.321,4.498-6.74,12.89-9.646C64.238,19.9,71.212,31.189,71.212,44.082z   M25.011,10.667c0.644,2.718,0.917,6.072-0.831,8.069l-0.596,0.679c-4.421,5.033-11.821,13.458-11.441,20.502  c0.121,2.229,0.735,3.613,1.184,4.625c0.884,1.993,1.182,2.664-6.453,8.899c-1.222,0.998-2.519,1.953-3.845,2.869  c-1.417-3.812-2.195-7.931-2.195-12.229C0.833,28.524,10.986,15.301,25.011,10.667z M11.913,69.68  c0.293-0.609,0.592-1.249,0.9-1.947c5.163-11.689,8.698-15.891,10.285-15.925c0.131-0.02,0.534-0.012,0.974,0.878  c0.912,1.846,2.211,3.037,3.861,3.544c2.673,0.818,6.214-0.099,11.137-2.893c0.462-0.262,0.992-0.304,1.618-0.124  c3.407,0.971,8.846,8.001,15.334,19.8c-5.684,3.941-12.574,6.259-19.999,6.259C26.698,79.271,18.216,75.619,11.913,69.68z   M57.246,72.128c-6.826-12.393-12.26-19.251-16.147-20.357c-1.018-0.292-1.95-0.203-2.77,0.262  c-4.476,2.542-7.733,3.448-9.957,2.763c-1.257-0.386-2.224-1.293-2.956-2.773c-0.714-1.444-1.685-1.713-2.352-1.714  c-2.811,0.061-6.722,5.72-11.624,16.819c-0.224,0.506-0.442,0.98-0.658,1.439c-3.019-3.111-5.475-6.771-7.188-10.821  c1.461-0.997,2.886-2.046,4.228-3.142c8.159-6.663,8.153-7.79,6.875-10.67c-0.424-0.955-0.951-2.144-1.057-4.098  c-0.347-6.434,7.08-14.889,11.07-19.431l0.598-0.681c1.788-2.043,2.154-5.244,1.127-9.493c3.05-0.865,6.263-1.338,9.586-1.338  c5.798,0,11.268,1.418,16.095,3.913c-6.169,2.281-12.756,5.845-12.639,10.649l0.015,0.594c0.185,7.771,0.345,14.483,7.857,18.035  c2.671,1.264,6.346,2.479,9.899,3.654c5.622,1.859,11.955,3.96,13.118,5.979C68.53,59.987,63.78,67.171,57.246,72.128z"/><path d="M43.938,3.922c4.121,0.808,8.078,2.243,11.762,4.267c0.115,0.063,0.238,0.093,0.36,0.093c0.168,0,0.32-0.074,0.453-0.179  c0.194-0.074,0.366-0.201,0.481-0.376c0.017-0.025,1.74-2.629,3.438-5.805c2.326-4.354,3.505-7.69,3.505-9.917  c0-4.288-3.49-7.776-7.811-7.776c-4.289,0-7.779,3.488-7.779,7.776c0,2.674,1.188,6.15,3.533,10.33  c0.693,1.239,1.385,2.347,1.97,3.244c-3.069-1.424-6.294-2.477-9.623-3.129c-0.403-0.081-0.801,0.186-0.881,0.592  C43.267,3.448,43.531,3.842,43.938,3.922z M49.847-7.995c0-3.461,2.816-6.276,6.311-6.276c3.463,0,6.279,2.815,6.279,6.276  c0,1.36-0.577,4.062-3.327,9.21c-1.186,2.217-2.374,4.135-2.971,5.073c-0.606-0.863-1.783-2.601-2.95-4.686  C50.971-2.352,49.847-5.581,49.847-7.995z"/><path d="M19.058,6.755c0.102,0,0.206-0.021,0.305-0.065c3.831-1.71,7.892-2.813,12.07-3.279c0.412-0.046,0.708-0.417,0.663-0.829  c-0.046-0.412-0.417-0.703-0.829-0.663c-4.332,0.483-8.543,1.627-12.516,3.4c-0.378,0.169-0.548,0.612-0.379,0.991  C18.497,6.59,18.771,6.755,19.058,6.755z"/><path d="M0.108,23.68c0.003,0,0.006,0,0.009,0c0.325-0.004,0.63-0.168,0.833-0.466c0.199-0.303,0.963-1.484,1.906-3.086  c1.751-2.422,3.752-4.656,5.999-6.651c0.31-0.275,0.338-0.749,0.063-1.059s-0.75-0.339-1.059-0.063  c-0.645,0.573-1.256,1.178-1.863,1.786c1.247-2.777,1.884-5.003,1.884-6.628c0-4.289-3.49-7.777-7.812-7.777  c-4.29,0-7.779,3.489-7.779,7.777c0,2.672,1.189,6.147,3.533,10.33c1.718,3.065,3.472,5.428,3.476,5.433  c0.188,0.253,0.489,0.404,0.805,0.404H0.108z M-2.87,17.109c-2.217-3.956-3.342-7.184-3.342-9.596c0-3.461,2.817-6.277,6.312-6.277  c3.462,0,6.279,2.816,6.279,6.277c0,1.975-1.12,5.073-3.329,9.209c-0.495,0.926-0.989,1.795-1.444,2.572  c-0.561,0.778-1.088,1.581-1.597,2.397C-0.615,20.796-1.751,19.106-2.87,17.109z"/><path d="M0.083,11.694c2.212,0,4.012-1.799,4.012-4.01c0-2.212-1.8-4.012-4.012-4.012c-2.211,0-4.011,1.8-4.011,4.012  C-3.928,9.896-2.128,11.694,0.083,11.694z M0.083,5.173c1.385,0,2.512,1.127,2.512,2.512c0,1.384-1.127,2.51-2.512,2.51  c-1.384,0-2.511-1.126-2.511-2.51C-2.428,6.3-1.301,5.173,0.083,5.173z"/><text x="-17.5" y="97.5" fill="#000000" font-size="5px" font-weight="bold" font-family="'Helvetica Neue', Helvetica, Arial-Unicode, Arial, Sans-serif"></text><text x="-17.5" y="102.5" fill="#000000" font-size="5px" font-weight="bold" font-family="'Helvetica Neue', Helvetica, Arial-Unicode, Arial, Sans-serif"></text></svg>
